<mxfile host="app.diagrams.net" agent="Mozilla/5.0 (Macintosh; Intel Mac OS X 10_15_7) AppleWebKit/537.36 (KHTML, like Gecko) Chrome/133.0.0.0 Safari/537.36" version="26.0.12" pages="2">
  <diagram name="Page-1" id="VI8EY4aZrkDlifpeB0-J">
    <mxGraphModel dx="7587" dy="2580" grid="1" gridSize="10" guides="1" tooltips="1" connect="1" arrows="1" fold="1" page="1" pageScale="1" pageWidth="1169" pageHeight="1654" math="0" shadow="0">
      <root>
        <mxCell id="0" />
        <mxCell id="1" parent="0" />
        <mxCell id="ARa3XAWz3SJK5EvA4OsR-39" value="&lt;font style=&quot;font-size: 24px;&quot;&gt;PATIENT&lt;/font&gt;" style="text;html=1;align=center;verticalAlign=middle;whiteSpace=wrap;rounded=0;" vertex="1" parent="1">
          <mxGeometry x="-3010" y="330" width="120" height="40" as="geometry" />
        </mxCell>
        <mxCell id="ARa3XAWz3SJK5EvA4OsR-54" value="" style="rounded=0;whiteSpace=wrap;html=1;" vertex="1" parent="1">
          <mxGeometry x="-2760" y="360" width="240" height="40" as="geometry" />
        </mxCell>
        <mxCell id="ARa3XAWz3SJK5EvA4OsR-55" value="" style="rounded=0;whiteSpace=wrap;html=1;" vertex="1" parent="1">
          <mxGeometry x="-3000" y="360" width="240" height="40" as="geometry" />
        </mxCell>
        <mxCell id="ARa3XAWz3SJK5EvA4OsR-56" value="" style="rounded=0;whiteSpace=wrap;html=1;" vertex="1" parent="1">
          <mxGeometry x="-2520" y="360" width="240" height="40" as="geometry" />
        </mxCell>
        <mxCell id="ARa3XAWz3SJK5EvA4OsR-57" value="" style="rounded=0;whiteSpace=wrap;html=1;" vertex="1" parent="1">
          <mxGeometry x="-2280" y="360" width="240" height="40" as="geometry" />
        </mxCell>
        <mxCell id="ARa3XAWz3SJK5EvA4OsR-58" value="" style="rounded=0;whiteSpace=wrap;html=1;" vertex="1" parent="1">
          <mxGeometry x="-2040" y="360" width="240" height="40" as="geometry" />
        </mxCell>
        <mxCell id="ARa3XAWz3SJK5EvA4OsR-59" value="" style="rounded=0;whiteSpace=wrap;html=1;" vertex="1" parent="1">
          <mxGeometry x="-1800" y="360" width="240" height="40" as="geometry" />
        </mxCell>
        <mxCell id="ARa3XAWz3SJK5EvA4OsR-60" value="" style="rounded=0;whiteSpace=wrap;html=1;" vertex="1" parent="1">
          <mxGeometry x="-1560" y="360" width="240" height="40" as="geometry" />
        </mxCell>
        <mxCell id="ARa3XAWz3SJK5EvA4OsR-61" value="" style="rounded=0;whiteSpace=wrap;html=1;" vertex="1" parent="1">
          <mxGeometry x="-1320" y="360" width="220" height="40" as="geometry" />
        </mxCell>
        <mxCell id="ARa3XAWz3SJK5EvA4OsR-62" value="&lt;font style=&quot;font-size: 24px;&quot;&gt;Zip&lt;/font&gt;" style="text;html=1;align=center;verticalAlign=middle;whiteSpace=wrap;rounded=0;" vertex="1" parent="1">
          <mxGeometry x="-1480" y="365" width="60" height="30" as="geometry" />
        </mxCell>
        <mxCell id="ARa3XAWz3SJK5EvA4OsR-63" value="&lt;font style=&quot;font-size: 24px;&quot;&gt;State&lt;/font&gt;" style="text;html=1;align=center;verticalAlign=middle;whiteSpace=wrap;rounded=0;" vertex="1" parent="1">
          <mxGeometry x="-1720" y="365" width="60" height="30" as="geometry" />
        </mxCell>
        <mxCell id="ARa3XAWz3SJK5EvA4OsR-64" value="&lt;font style=&quot;font-size: 24px;&quot;&gt;City&lt;/font&gt;" style="text;html=1;align=center;verticalAlign=middle;whiteSpace=wrap;rounded=0;" vertex="1" parent="1">
          <mxGeometry x="-1950" y="370" width="60" height="30" as="geometry" />
        </mxCell>
        <mxCell id="ARa3XAWz3SJK5EvA4OsR-65" value="&lt;font style=&quot;font-size: 24px;&quot;&gt;Street&lt;/font&gt;" style="text;html=1;align=center;verticalAlign=middle;whiteSpace=wrap;rounded=0;" vertex="1" parent="1">
          <mxGeometry x="-2190" y="370" width="60" height="30" as="geometry" />
        </mxCell>
        <mxCell id="ARa3XAWz3SJK5EvA4OsR-66" value="&lt;font style=&quot;font-size: 24px;&quot;&gt;BirthDate&lt;/font&gt;" style="text;html=1;align=center;verticalAlign=middle;whiteSpace=wrap;rounded=0;" vertex="1" parent="1">
          <mxGeometry x="-2440" y="365" width="60" height="30" as="geometry" />
        </mxCell>
        <mxCell id="ARa3XAWz3SJK5EvA4OsR-67" value="&lt;font style=&quot;font-size: 24px;&quot;&gt;Name&lt;/font&gt;" style="text;html=1;align=center;verticalAlign=middle;whiteSpace=wrap;rounded=0;" vertex="1" parent="1">
          <mxGeometry x="-2680" y="365" width="60" height="30" as="geometry" />
        </mxCell>
        <mxCell id="ARa3XAWz3SJK5EvA4OsR-68" value="&lt;font style=&quot;font-size: 24px;&quot;&gt;SSN&lt;/font&gt;" style="text;html=1;align=center;verticalAlign=middle;whiteSpace=wrap;rounded=0;" vertex="1" parent="1">
          <mxGeometry x="-2930" y="365" width="60" height="30" as="geometry" />
        </mxCell>
        <mxCell id="ARa3XAWz3SJK5EvA4OsR-69" value="&lt;font style=&quot;font-size: 24px;&quot;&gt;Primary_Doc&lt;/font&gt;" style="text;html=1;align=center;verticalAlign=middle;whiteSpace=wrap;rounded=0;" vertex="1" parent="1">
          <mxGeometry x="-1240" y="365" width="60" height="30" as="geometry" />
        </mxCell>
        <mxCell id="ARa3XAWz3SJK5EvA4OsR-71" value="&lt;font style=&quot;font-size: 24px;&quot;&gt;PATIENT&lt;/font&gt;" style="text;html=1;align=center;verticalAlign=middle;whiteSpace=wrap;rounded=0;" vertex="1" parent="1">
          <mxGeometry x="-1450" y="490" width="120" height="40" as="geometry" />
        </mxCell>
        <mxCell id="ARa3XAWz3SJK5EvA4OsR-72" value="" style="rounded=0;whiteSpace=wrap;html=1;" vertex="1" parent="1">
          <mxGeometry x="-1200" y="520" width="240" height="40" as="geometry" />
        </mxCell>
        <mxCell id="ARa3XAWz3SJK5EvA4OsR-73" value="" style="rounded=0;whiteSpace=wrap;html=1;" vertex="1" parent="1">
          <mxGeometry x="-1440" y="520" width="240" height="40" as="geometry" />
        </mxCell>
        <mxCell id="ARa3XAWz3SJK5EvA4OsR-74" value="" style="rounded=0;whiteSpace=wrap;html=1;" vertex="1" parent="1">
          <mxGeometry x="-960" y="520" width="240" height="40" as="geometry" />
        </mxCell>
        <mxCell id="ARa3XAWz3SJK5EvA4OsR-75" value="" style="rounded=0;whiteSpace=wrap;html=1;" vertex="1" parent="1">
          <mxGeometry x="-720" y="520" width="240" height="40" as="geometry" />
        </mxCell>
        <mxCell id="ARa3XAWz3SJK5EvA4OsR-83" value="&lt;font style=&quot;font-size: 24px;&quot;&gt;Exper_years&lt;/font&gt;" style="text;html=1;align=center;verticalAlign=middle;whiteSpace=wrap;rounded=0;" vertex="1" parent="1">
          <mxGeometry x="-630" y="530" width="60" height="30" as="geometry" />
        </mxCell>
        <mxCell id="ARa3XAWz3SJK5EvA4OsR-84" value="&lt;font style=&quot;font-size: 24px;&quot;&gt;Speciality&lt;/font&gt;" style="text;html=1;align=center;verticalAlign=middle;whiteSpace=wrap;rounded=0;" vertex="1" parent="1">
          <mxGeometry x="-880" y="525" width="60" height="30" as="geometry" />
        </mxCell>
        <mxCell id="ARa3XAWz3SJK5EvA4OsR-85" value="&lt;font style=&quot;font-size: 24px;&quot;&gt;Name&lt;/font&gt;" style="text;html=1;align=center;verticalAlign=middle;whiteSpace=wrap;rounded=0;" vertex="1" parent="1">
          <mxGeometry x="-1120" y="525" width="60" height="30" as="geometry" />
        </mxCell>
        <mxCell id="ARa3XAWz3SJK5EvA4OsR-86" value="&lt;font style=&quot;font-size: 24px;&quot;&gt;Doc_SSN&lt;/font&gt;" style="text;html=1;align=center;verticalAlign=middle;whiteSpace=wrap;rounded=0;" vertex="1" parent="1">
          <mxGeometry x="-1370" y="525" width="60" height="30" as="geometry" />
        </mxCell>
        <mxCell id="ARa3XAWz3SJK5EvA4OsR-88" value="&lt;font style=&quot;font-size: 24px;&quot;&gt;PRESCRIBES&lt;/font&gt;" style="text;html=1;align=center;verticalAlign=middle;whiteSpace=wrap;rounded=0;" vertex="1" parent="1">
          <mxGeometry x="-2380" y="610" width="120" height="40" as="geometry" />
        </mxCell>
        <mxCell id="ARa3XAWz3SJK5EvA4OsR-89" value="" style="rounded=0;whiteSpace=wrap;html=1;" vertex="1" parent="1">
          <mxGeometry x="-2155" y="640" width="240" height="40" as="geometry" />
        </mxCell>
        <mxCell id="ARa3XAWz3SJK5EvA4OsR-90" value="" style="rounded=0;whiteSpace=wrap;html=1;" vertex="1" parent="1">
          <mxGeometry x="-2395" y="640" width="240" height="40" as="geometry" />
        </mxCell>
        <mxCell id="ARa3XAWz3SJK5EvA4OsR-91" value="" style="rounded=0;whiteSpace=wrap;html=1;" vertex="1" parent="1">
          <mxGeometry x="-1915" y="640" width="240" height="40" as="geometry" />
        </mxCell>
        <mxCell id="ARa3XAWz3SJK5EvA4OsR-92" value="" style="rounded=0;whiteSpace=wrap;html=1;" vertex="1" parent="1">
          <mxGeometry x="-1675" y="640" width="240" height="40" as="geometry" />
        </mxCell>
        <mxCell id="ARa3XAWz3SJK5EvA4OsR-93" value="&lt;font style=&quot;font-size: 24px;&quot;&gt;Date&lt;/font&gt;" style="text;html=1;align=center;verticalAlign=middle;whiteSpace=wrap;rounded=0;" vertex="1" parent="1">
          <mxGeometry x="-1585" y="650" width="60" height="30" as="geometry" />
        </mxCell>
        <mxCell id="ARa3XAWz3SJK5EvA4OsR-94" value="&lt;font style=&quot;font-size: 24px;&quot;&gt;Doctor&lt;/font&gt;" style="text;html=1;align=center;verticalAlign=middle;whiteSpace=wrap;rounded=0;" vertex="1" parent="1">
          <mxGeometry x="-1835" y="645" width="60" height="30" as="geometry" />
        </mxCell>
        <mxCell id="ARa3XAWz3SJK5EvA4OsR-95" value="&lt;font style=&quot;font-size: 24px;&quot;&gt;Patient&lt;/font&gt;" style="text;html=1;align=center;verticalAlign=middle;whiteSpace=wrap;rounded=0;" vertex="1" parent="1">
          <mxGeometry x="-2075" y="645" width="60" height="30" as="geometry" />
        </mxCell>
        <mxCell id="ARa3XAWz3SJK5EvA4OsR-96" value="&lt;font style=&quot;font-size: 24px;&quot;&gt;Drug&lt;/font&gt;" style="text;html=1;align=center;verticalAlign=middle;whiteSpace=wrap;rounded=0;" vertex="1" parent="1">
          <mxGeometry x="-2300" y="645" width="60" height="30" as="geometry" />
        </mxCell>
        <mxCell id="ARa3XAWz3SJK5EvA4OsR-97" value="" style="rounded=0;whiteSpace=wrap;html=1;" vertex="1" parent="1">
          <mxGeometry x="-1435" y="640" width="215" height="40" as="geometry" />
        </mxCell>
        <mxCell id="ARa3XAWz3SJK5EvA4OsR-99" value="&lt;font style=&quot;font-size: 24px;&quot;&gt;Quantity&lt;/font&gt;" style="text;html=1;align=center;verticalAlign=middle;whiteSpace=wrap;rounded=0;" vertex="1" parent="1">
          <mxGeometry x="-1357.5" y="630" width="60" height="60" as="geometry" />
        </mxCell>
        <mxCell id="ARa3XAWz3SJK5EvA4OsR-100" value="&lt;span style=&quot;font-size: 24px;&quot;&gt;Drug&lt;/span&gt;" style="text;html=1;align=center;verticalAlign=middle;whiteSpace=wrap;rounded=0;" vertex="1" parent="1">
          <mxGeometry x="-2720" y="760" width="120" height="40" as="geometry" />
        </mxCell>
        <mxCell id="ARa3XAWz3SJK5EvA4OsR-101" value="" style="rounded=0;whiteSpace=wrap;html=1;" vertex="1" parent="1">
          <mxGeometry x="-2480" y="800" width="240" height="40" as="geometry" />
        </mxCell>
        <mxCell id="ARa3XAWz3SJK5EvA4OsR-102" value="" style="rounded=0;whiteSpace=wrap;html=1;" vertex="1" parent="1">
          <mxGeometry x="-2720" y="800" width="240" height="40" as="geometry" />
        </mxCell>
        <mxCell id="ARa3XAWz3SJK5EvA4OsR-103" value="" style="rounded=0;whiteSpace=wrap;html=1;" vertex="1" parent="1">
          <mxGeometry x="-2240" y="800" width="240" height="40" as="geometry" />
        </mxCell>
        <mxCell id="ARa3XAWz3SJK5EvA4OsR-104" value="&lt;font style=&quot;font-size: 24px;&quot;&gt;Pharma_Co&lt;/font&gt;" style="text;html=1;align=center;verticalAlign=middle;whiteSpace=wrap;rounded=0;" vertex="1" parent="1">
          <mxGeometry x="-2160" y="805" width="60" height="30" as="geometry" />
        </mxCell>
        <mxCell id="ARa3XAWz3SJK5EvA4OsR-105" value="&lt;span style=&quot;font-size: 24px;&quot;&gt;Formula&lt;/span&gt;" style="text;html=1;align=center;verticalAlign=middle;whiteSpace=wrap;rounded=0;" vertex="1" parent="1">
          <mxGeometry x="-2400" y="805" width="60" height="30" as="geometry" />
        </mxCell>
        <mxCell id="ARa3XAWz3SJK5EvA4OsR-106" value="&lt;font style=&quot;font-size: 24px;&quot;&gt;Trade_Name&lt;/font&gt;" style="text;html=1;align=center;verticalAlign=middle;whiteSpace=wrap;rounded=0;" vertex="1" parent="1">
          <mxGeometry x="-2625" y="805" width="60" height="30" as="geometry" />
        </mxCell>
        <mxCell id="ARa3XAWz3SJK5EvA4OsR-107" value="" style="rounded=0;whiteSpace=wrap;html=1;" vertex="1" parent="1">
          <mxGeometry x="-1540" y="800" width="240" height="40" as="geometry" />
        </mxCell>
        <mxCell id="ARa3XAWz3SJK5EvA4OsR-108" value="" style="rounded=0;whiteSpace=wrap;html=1;" vertex="1" parent="1">
          <mxGeometry x="-1300" y="800" width="240" height="40" as="geometry" />
        </mxCell>
        <mxCell id="ARa3XAWz3SJK5EvA4OsR-109" value="&lt;font style=&quot;font-size: 24px;&quot;&gt;Phone&lt;/font&gt;" style="text;html=1;align=center;verticalAlign=middle;whiteSpace=wrap;rounded=0;" vertex="1" parent="1">
          <mxGeometry x="-1220" y="805" width="60" height="30" as="geometry" />
        </mxCell>
        <mxCell id="ARa3XAWz3SJK5EvA4OsR-110" value="&lt;font style=&quot;font-size: 24px;&quot;&gt;Name&lt;/font&gt;" style="text;html=1;align=center;verticalAlign=middle;whiteSpace=wrap;rounded=0;" vertex="1" parent="1">
          <mxGeometry x="-1460" y="805" width="60" height="30" as="geometry" />
        </mxCell>
        <mxCell id="ARa3XAWz3SJK5EvA4OsR-111" value="&lt;span style=&quot;font-size: 24px;&quot;&gt;Pharma_Co&lt;/span&gt;" style="text;html=1;align=center;verticalAlign=middle;whiteSpace=wrap;rounded=0;" vertex="1" parent="1">
          <mxGeometry x="-1540" y="760" width="120" height="40" as="geometry" />
        </mxCell>
        <mxCell id="ARa3XAWz3SJK5EvA4OsR-120" value="&lt;span style=&quot;font-size: 24px;&quot;&gt;Sells&lt;/span&gt;" style="text;html=1;align=center;verticalAlign=middle;whiteSpace=wrap;rounded=0;" vertex="1" parent="1">
          <mxGeometry x="-2720" y="910" width="120" height="40" as="geometry" />
        </mxCell>
        <mxCell id="ARa3XAWz3SJK5EvA4OsR-121" value="" style="rounded=0;whiteSpace=wrap;html=1;" vertex="1" parent="1">
          <mxGeometry x="-2480" y="950" width="240" height="40" as="geometry" />
        </mxCell>
        <mxCell id="ARa3XAWz3SJK5EvA4OsR-122" value="" style="rounded=0;whiteSpace=wrap;html=1;" vertex="1" parent="1">
          <mxGeometry x="-2720" y="950" width="240" height="40" as="geometry" />
        </mxCell>
        <mxCell id="ARa3XAWz3SJK5EvA4OsR-123" value="" style="rounded=0;whiteSpace=wrap;html=1;" vertex="1" parent="1">
          <mxGeometry x="-2240" y="950" width="240" height="40" as="geometry" />
        </mxCell>
        <mxCell id="ARa3XAWz3SJK5EvA4OsR-124" value="&lt;font style=&quot;font-size: 24px;&quot;&gt;Price&lt;/font&gt;" style="text;html=1;align=center;verticalAlign=middle;whiteSpace=wrap;rounded=0;" vertex="1" parent="1">
          <mxGeometry x="-2160" y="955" width="60" height="30" as="geometry" />
        </mxCell>
        <mxCell id="ARa3XAWz3SJK5EvA4OsR-125" value="&lt;font style=&quot;font-size: 24px;&quot;&gt;Pharmacy&lt;/font&gt;" style="text;html=1;align=center;verticalAlign=middle;whiteSpace=wrap;rounded=0;" vertex="1" parent="1">
          <mxGeometry x="-2400" y="955" width="60" height="30" as="geometry" />
        </mxCell>
        <mxCell id="ARa3XAWz3SJK5EvA4OsR-126" value="&lt;font style=&quot;font-size: 24px;&quot;&gt;Drug&lt;/font&gt;" style="text;html=1;align=center;verticalAlign=middle;whiteSpace=wrap;rounded=0;" vertex="1" parent="1">
          <mxGeometry x="-2625" y="955" width="60" height="30" as="geometry" />
        </mxCell>
        <mxCell id="ARa3XAWz3SJK5EvA4OsR-127" value="" style="rounded=0;whiteSpace=wrap;html=1;" vertex="1" parent="1">
          <mxGeometry x="-1750" y="950" width="240" height="40" as="geometry" />
        </mxCell>
        <mxCell id="ARa3XAWz3SJK5EvA4OsR-128" value="" style="rounded=0;whiteSpace=wrap;html=1;" vertex="1" parent="1">
          <mxGeometry x="-1510" y="950" width="240" height="40" as="geometry" />
        </mxCell>
        <mxCell id="ARa3XAWz3SJK5EvA4OsR-129" value="" style="rounded=0;whiteSpace=wrap;html=1;" vertex="1" parent="1">
          <mxGeometry x="-1270" y="950" width="240" height="40" as="geometry" />
        </mxCell>
        <mxCell id="ARa3XAWz3SJK5EvA4OsR-130" value="" style="rounded=0;whiteSpace=wrap;html=1;" vertex="1" parent="1">
          <mxGeometry x="-1030" y="950" width="240" height="40" as="geometry" />
        </mxCell>
        <mxCell id="ARa3XAWz3SJK5EvA4OsR-131" value="" style="rounded=0;whiteSpace=wrap;html=1;" vertex="1" parent="1">
          <mxGeometry x="-790" y="950" width="240" height="40" as="geometry" />
        </mxCell>
        <mxCell id="ARa3XAWz3SJK5EvA4OsR-133" value="&lt;font style=&quot;font-size: 24px;&quot;&gt;Start&lt;/font&gt;" style="text;html=1;align=center;verticalAlign=middle;whiteSpace=wrap;rounded=0;" vertex="1" parent="1">
          <mxGeometry x="-710" y="955" width="60" height="30" as="geometry" />
        </mxCell>
        <mxCell id="ARa3XAWz3SJK5EvA4OsR-134" value="&lt;font style=&quot;font-size: 24px;&quot;&gt;Text&lt;/font&gt;" style="text;html=1;align=center;verticalAlign=middle;whiteSpace=wrap;rounded=0;" vertex="1" parent="1">
          <mxGeometry x="-940" y="960" width="60" height="30" as="geometry" />
        </mxCell>
        <mxCell id="ARa3XAWz3SJK5EvA4OsR-135" value="&lt;font style=&quot;font-size: 24px;&quot;&gt;Supervisor&lt;/font&gt;" style="text;html=1;align=center;verticalAlign=middle;whiteSpace=wrap;rounded=0;" vertex="1" parent="1">
          <mxGeometry x="-1180" y="960" width="60" height="30" as="geometry" />
        </mxCell>
        <mxCell id="ARa3XAWz3SJK5EvA4OsR-136" value="&lt;font style=&quot;font-size: 24px;&quot;&gt;Pharmacy&lt;/font&gt;" style="text;html=1;align=center;verticalAlign=middle;whiteSpace=wrap;rounded=0;" vertex="1" parent="1">
          <mxGeometry x="-1430" y="955" width="60" height="30" as="geometry" />
        </mxCell>
        <mxCell id="ARa3XAWz3SJK5EvA4OsR-137" value="&lt;font style=&quot;font-size: 24px;&quot;&gt;Pharma_Co&lt;/font&gt;" style="text;html=1;align=center;verticalAlign=middle;whiteSpace=wrap;rounded=0;" vertex="1" parent="1">
          <mxGeometry x="-1670" y="955" width="60" height="30" as="geometry" />
        </mxCell>
        <mxCell id="ARa3XAWz3SJK5EvA4OsR-138" value="&lt;span style=&quot;font-size: 24px;&quot;&gt;Contracts&lt;/span&gt;" style="text;html=1;align=center;verticalAlign=middle;whiteSpace=wrap;rounded=0;" vertex="1" parent="1">
          <mxGeometry x="-1740" y="915" width="120" height="40" as="geometry" />
        </mxCell>
        <mxCell id="ARa3XAWz3SJK5EvA4OsR-139" value="" style="rounded=0;whiteSpace=wrap;html=1;" vertex="1" parent="1">
          <mxGeometry x="-550" y="950" width="220" height="40" as="geometry" />
        </mxCell>
        <mxCell id="ARa3XAWz3SJK5EvA4OsR-142" value="&lt;font style=&quot;font-size: 24px;&quot;&gt;End&lt;/font&gt;" style="text;html=1;align=center;verticalAlign=middle;whiteSpace=wrap;rounded=0;" vertex="1" parent="1">
          <mxGeometry x="-480" y="955" width="60" height="30" as="geometry" />
        </mxCell>
        <mxCell id="ARa3XAWz3SJK5EvA4OsR-143" value="" style="rounded=0;whiteSpace=wrap;html=1;" vertex="1" parent="1">
          <mxGeometry x="-2057.5" y="1250" width="240" height="40" as="geometry" />
        </mxCell>
        <mxCell id="ARa3XAWz3SJK5EvA4OsR-144" value="" style="rounded=0;whiteSpace=wrap;html=1;" vertex="1" parent="1">
          <mxGeometry x="-1817.5" y="1250" width="240" height="40" as="geometry" />
        </mxCell>
        <mxCell id="ARa3XAWz3SJK5EvA4OsR-145" value="&lt;font style=&quot;font-size: 24px;&quot;&gt;Phone&lt;/font&gt;" style="text;html=1;align=center;verticalAlign=middle;whiteSpace=wrap;rounded=0;" vertex="1" parent="1">
          <mxGeometry x="-1737.5" y="1255" width="60" height="30" as="geometry" />
        </mxCell>
        <mxCell id="ARa3XAWz3SJK5EvA4OsR-146" value="&lt;font style=&quot;font-size: 24px;&quot;&gt;Name&lt;/font&gt;" style="text;html=1;align=center;verticalAlign=middle;whiteSpace=wrap;rounded=0;" vertex="1" parent="1">
          <mxGeometry x="-1967.5" y="1260" width="60" height="30" as="geometry" />
        </mxCell>
        <mxCell id="ARa3XAWz3SJK5EvA4OsR-147" value="" style="rounded=0;whiteSpace=wrap;html=1;" vertex="1" parent="1">
          <mxGeometry x="-1577.5" y="1250" width="220" height="40" as="geometry" />
        </mxCell>
        <mxCell id="ARa3XAWz3SJK5EvA4OsR-148" value="&lt;font style=&quot;font-size: 24px;&quot;&gt;Address&lt;/font&gt;" style="text;html=1;align=center;verticalAlign=middle;whiteSpace=wrap;rounded=0;" vertex="1" parent="1">
          <mxGeometry x="-1507.5" y="1255" width="60" height="30" as="geometry" />
        </mxCell>
        <mxCell id="ARa3XAWz3SJK5EvA4OsR-149" value="&lt;span style=&quot;font-size: 24px;&quot;&gt;Pharmacy&lt;/span&gt;" style="text;html=1;align=center;verticalAlign=middle;whiteSpace=wrap;rounded=0;" vertex="1" parent="1">
          <mxGeometry x="-2060" y="1215" width="120" height="40" as="geometry" />
        </mxCell>
        <mxCell id="ARa3XAWz3SJK5EvA4OsR-150" value="" style="endArrow=classic;html=1;rounded=0;entryX=0.5;entryY=1;entryDx=0;entryDy=0;exitX=0.458;exitY=-0.062;exitDx=0;exitDy=0;exitPerimeter=0;" edge="1" parent="1" source="ARa3XAWz3SJK5EvA4OsR-73" target="ARa3XAWz3SJK5EvA4OsR-61">
          <mxGeometry width="50" height="50" relative="1" as="geometry">
            <mxPoint x="-1330" y="520" as="sourcePoint" />
            <mxPoint x="-1170" y="490" as="targetPoint" />
          </mxGeometry>
        </mxCell>
        <mxCell id="ARa3XAWz3SJK5EvA4OsR-151" value="" style="endArrow=classic;html=1;rounded=0;entryX=0.5;entryY=1;entryDx=0;entryDy=0;exitX=0.458;exitY=-0.062;exitDx=0;exitDy=0;exitPerimeter=0;" edge="1" parent="1" target="ARa3XAWz3SJK5EvA4OsR-136">
          <mxGeometry width="50" height="50" relative="1" as="geometry">
            <mxPoint x="-1920" y="1248" as="sourcePoint" />
            <mxPoint x="-1800" y="1130" as="targetPoint" />
          </mxGeometry>
        </mxCell>
        <mxCell id="ARa3XAWz3SJK5EvA4OsR-152" value="" style="endArrow=classic;html=1;rounded=0;entryX=0.451;entryY=1.063;entryDx=0;entryDy=0;exitX=0.458;exitY=-0.062;exitDx=0;exitDy=0;exitPerimeter=0;entryPerimeter=0;" edge="1" parent="1" target="ARa3XAWz3SJK5EvA4OsR-121">
          <mxGeometry width="50" height="50" relative="1" as="geometry">
            <mxPoint x="-2055" y="1250" as="sourcePoint" />
            <mxPoint x="-1535" y="987" as="targetPoint" />
          </mxGeometry>
        </mxCell>
        <mxCell id="ARa3XAWz3SJK5EvA4OsR-153" value="" style="endArrow=classic;html=1;rounded=0;exitX=0.458;exitY=-0.062;exitDx=0;exitDy=0;exitPerimeter=0;entryX=0.632;entryY=0.104;entryDx=0;entryDy=0;entryPerimeter=0;" edge="1" parent="1" target="ARa3XAWz3SJK5EvA4OsR-127">
          <mxGeometry width="50" height="50" relative="1" as="geometry">
            <mxPoint x="-1420" y="840" as="sourcePoint" />
            <mxPoint x="-1570" y="946" as="targetPoint" />
          </mxGeometry>
        </mxCell>
        <mxCell id="ARa3XAWz3SJK5EvA4OsR-154" value="" style="endArrow=classic;html=1;rounded=0;exitX=0;exitY=0.5;exitDx=0;exitDy=0;entryX=1;entryY=0.5;entryDx=0;entryDy=0;" edge="1" parent="1" source="ARa3XAWz3SJK5EvA4OsR-107" target="ARa3XAWz3SJK5EvA4OsR-103">
          <mxGeometry width="50" height="50" relative="1" as="geometry">
            <mxPoint x="-1540" y="810" as="sourcePoint" />
            <mxPoint x="-1718" y="924" as="targetPoint" />
          </mxGeometry>
        </mxCell>
        <mxCell id="ARa3XAWz3SJK5EvA4OsR-155" value="" style="endArrow=classic;html=1;rounded=0;exitX=0.583;exitY=-0.021;exitDx=0;exitDy=0;entryX=0.5;entryY=1;entryDx=0;entryDy=0;exitPerimeter=0;" edge="1" parent="1" source="ARa3XAWz3SJK5EvA4OsR-102" target="ARa3XAWz3SJK5EvA4OsR-90">
          <mxGeometry width="50" height="50" relative="1" as="geometry">
            <mxPoint x="-2300" y="760" as="sourcePoint" />
            <mxPoint x="-2760" y="760" as="targetPoint" />
          </mxGeometry>
        </mxCell>
        <mxCell id="ARa3XAWz3SJK5EvA4OsR-156" value="" style="endArrow=classic;html=1;rounded=0;exitX=0.5;exitY=1;exitDx=0;exitDy=0;entryX=1;entryY=1;entryDx=0;entryDy=0;" edge="1" parent="1" source="ARa3XAWz3SJK5EvA4OsR-106" target="ARa3XAWz3SJK5EvA4OsR-120">
          <mxGeometry width="50" height="50" relative="1" as="geometry">
            <mxPoint x="-2590" y="810" as="sourcePoint" />
            <mxPoint x="-2265" y="690" as="targetPoint" />
          </mxGeometry>
        </mxCell>
        <mxCell id="ARa3XAWz3SJK5EvA4OsR-157" value="" style="endArrow=classic;html=1;rounded=0;entryX=0.5;entryY=0;entryDx=0;entryDy=0;" edge="1" parent="1" target="ARa3XAWz3SJK5EvA4OsR-89">
          <mxGeometry width="50" height="50" relative="1" as="geometry">
            <mxPoint x="-2892" y="400" as="sourcePoint" />
            <mxPoint x="-3070" y="514" as="targetPoint" />
          </mxGeometry>
        </mxCell>
        <mxCell id="ARa3XAWz3SJK5EvA4OsR-158" value="" style="endArrow=classic;html=1;rounded=0;exitX=0;exitY=0.5;exitDx=0;exitDy=0;entryX=0.5;entryY=0;entryDx=0;entryDy=0;" edge="1" parent="1" source="ARa3XAWz3SJK5EvA4OsR-73" target="ARa3XAWz3SJK5EvA4OsR-91">
          <mxGeometry width="50" height="50" relative="1" as="geometry">
            <mxPoint x="-1492" y="516" as="sourcePoint" />
            <mxPoint x="-1670" y="630" as="targetPoint" />
          </mxGeometry>
        </mxCell>
      </root>
    </mxGraphModel>
  </diagram>
  <diagram id="La1_8H_uTtakgFRsrTIt" name="Page-2">
    <mxGraphModel dx="4149" dy="3375" grid="1" gridSize="10" guides="1" tooltips="1" connect="1" arrows="1" fold="1" page="1" pageScale="1" pageWidth="1169" pageHeight="1654" math="0" shadow="0">
      <root>
        <mxCell id="0" />
        <mxCell id="1" parent="0" />
        <mxCell id="_tN8K5B3pRtK9R9Q_DA4-2" value="" style="rounded=0;whiteSpace=wrap;html=1;" vertex="1" parent="1">
          <mxGeometry x="740" y="340" width="240" height="40" as="geometry" />
        </mxCell>
        <mxCell id="_tN8K5B3pRtK9R9Q_DA4-3" value="" style="rounded=0;whiteSpace=wrap;html=1;" vertex="1" parent="1">
          <mxGeometry x="500" y="340" width="240" height="40" as="geometry" />
        </mxCell>
        <mxCell id="_tN8K5B3pRtK9R9Q_DA4-4" value="" style="rounded=0;whiteSpace=wrap;html=1;" vertex="1" parent="1">
          <mxGeometry x="980" y="340" width="240" height="40" as="geometry" />
        </mxCell>
        <mxCell id="_tN8K5B3pRtK9R9Q_DA4-14" value="&lt;font style=&quot;font-size: 24px;&quot;&gt;City&lt;/font&gt;" style="text;html=1;align=center;verticalAlign=middle;whiteSpace=wrap;rounded=0;" vertex="1" parent="1">
          <mxGeometry x="1060" y="345" width="60" height="30" as="geometry" />
        </mxCell>
        <mxCell id="_tN8K5B3pRtK9R9Q_DA4-15" value="&lt;font style=&quot;font-size: 24px;&quot;&gt;Street&lt;/font&gt;" style="text;html=1;align=center;verticalAlign=middle;whiteSpace=wrap;rounded=0;" vertex="1" parent="1">
          <mxGeometry x="820" y="345" width="60" height="30" as="geometry" />
        </mxCell>
        <mxCell id="_tN8K5B3pRtK9R9Q_DA4-16" value="&lt;font style=&quot;font-size: 24px;&quot;&gt;Name&lt;/font&gt;" style="text;html=1;align=center;verticalAlign=middle;whiteSpace=wrap;rounded=0;" vertex="1" parent="1">
          <mxGeometry x="570" y="345" width="60" height="30" as="geometry" />
        </mxCell>
        <mxCell id="_tN8K5B3pRtK9R9Q_DA4-57" value="" style="rounded=0;whiteSpace=wrap;html=1;" vertex="1" parent="1">
          <mxGeometry x="-220" y="605" width="240" height="40" as="geometry" />
        </mxCell>
        <mxCell id="_tN8K5B3pRtK9R9Q_DA4-58" value="" style="rounded=0;whiteSpace=wrap;html=1;" vertex="1" parent="1">
          <mxGeometry x="20" y="605" width="240" height="40" as="geometry" />
        </mxCell>
        <mxCell id="_tN8K5B3pRtK9R9Q_DA4-59" value="" style="rounded=0;whiteSpace=wrap;html=1;" vertex="1" parent="1">
          <mxGeometry x="260" y="605" width="240" height="40" as="geometry" />
        </mxCell>
        <mxCell id="_tN8K5B3pRtK9R9Q_DA4-60" value="" style="rounded=0;whiteSpace=wrap;html=1;" vertex="1" parent="1">
          <mxGeometry x="500" y="605" width="240" height="40" as="geometry" />
        </mxCell>
        <mxCell id="_tN8K5B3pRtK9R9Q_DA4-61" value="" style="rounded=0;whiteSpace=wrap;html=1;" vertex="1" parent="1">
          <mxGeometry x="740" y="605" width="240" height="40" as="geometry" />
        </mxCell>
        <mxCell id="_tN8K5B3pRtK9R9Q_DA4-62" value="&lt;font style=&quot;font-size: 24px;&quot;&gt;Station_Number&lt;/font&gt;" style="text;html=1;align=center;verticalAlign=middle;whiteSpace=wrap;rounded=0;" vertex="1" parent="1">
          <mxGeometry x="820" y="610" width="60" height="30" as="geometry" />
        </mxCell>
        <mxCell id="_tN8K5B3pRtK9R9Q_DA4-63" value="&lt;font style=&quot;font-size: 24px;&quot;&gt;Office_Number&lt;/font&gt;" style="text;html=1;align=center;verticalAlign=middle;whiteSpace=wrap;rounded=0;" vertex="1" parent="1">
          <mxGeometry x="590" y="615" width="60" height="30" as="geometry" />
        </mxCell>
        <mxCell id="_tN8K5B3pRtK9R9Q_DA4-64" value="&lt;font style=&quot;font-size: 24px;&quot;&gt;Job&lt;/font&gt;" style="text;html=1;align=center;verticalAlign=middle;whiteSpace=wrap;rounded=0;" vertex="1" parent="1">
          <mxGeometry x="350" y="615" width="60" height="30" as="geometry" />
        </mxCell>
        <mxCell id="_tN8K5B3pRtK9R9Q_DA4-65" value="&lt;font style=&quot;font-size: 24px;&quot;&gt;Salary&lt;/font&gt;" style="text;html=1;align=center;verticalAlign=middle;whiteSpace=wrap;rounded=0;" vertex="1" parent="1">
          <mxGeometry x="100" y="610" width="60" height="30" as="geometry" />
        </mxCell>
        <mxCell id="_tN8K5B3pRtK9R9Q_DA4-66" value="&lt;font style=&quot;font-size: 24px;&quot;&gt;Name&lt;/font&gt;" style="text;html=1;align=center;verticalAlign=middle;whiteSpace=wrap;rounded=0;" vertex="1" parent="1">
          <mxGeometry x="-140" y="610" width="60" height="30" as="geometry" />
        </mxCell>
        <mxCell id="_tN8K5B3pRtK9R9Q_DA4-67" value="&lt;span style=&quot;font-size: 24px;&quot;&gt;Employee&lt;/span&gt;" style="text;html=1;align=center;verticalAlign=middle;whiteSpace=wrap;rounded=0;" vertex="1" parent="1">
          <mxGeometry x="-210" y="570" width="120" height="40" as="geometry" />
        </mxCell>
        <mxCell id="_tN8K5B3pRtK9R9Q_DA4-68" value="" style="rounded=0;whiteSpace=wrap;html=1;" vertex="1" parent="1">
          <mxGeometry x="980" y="605" width="220" height="40" as="geometry" />
        </mxCell>
        <mxCell id="_tN8K5B3pRtK9R9Q_DA4-69" value="&lt;span style=&quot;font-size: 24px;&quot;&gt;Hours_Worked&lt;/span&gt;" style="text;html=1;align=center;verticalAlign=middle;whiteSpace=wrap;rounded=0;" vertex="1" parent="1">
          <mxGeometry x="1050" y="610" width="60" height="30" as="geometry" />
        </mxCell>
        <mxCell id="_tN8K5B3pRtK9R9Q_DA4-93" value="" style="rounded=0;whiteSpace=wrap;html=1;" vertex="1" parent="1">
          <mxGeometry x="1540" y="627.5" width="240" height="40" as="geometry" />
        </mxCell>
        <mxCell id="_tN8K5B3pRtK9R9Q_DA4-94" value="" style="rounded=0;whiteSpace=wrap;html=1;" vertex="1" parent="1">
          <mxGeometry x="1780" y="627.5" width="240" height="40" as="geometry" />
        </mxCell>
        <mxCell id="_tN8K5B3pRtK9R9Q_DA4-95" value="&lt;font style=&quot;font-size: 24px;&quot;&gt;Credit_Rating&lt;/font&gt;" style="text;html=1;align=center;verticalAlign=middle;whiteSpace=wrap;rounded=0;" vertex="1" parent="1">
          <mxGeometry x="1860" y="632.5" width="60" height="30" as="geometry" />
        </mxCell>
        <mxCell id="_tN8K5B3pRtK9R9Q_DA4-96" value="&lt;font style=&quot;font-size: 24px;&quot;&gt;Name&lt;/font&gt;" style="text;html=1;align=center;verticalAlign=middle;whiteSpace=wrap;rounded=0;" vertex="1" parent="1">
          <mxGeometry x="1620" y="632.5" width="60" height="30" as="geometry" />
        </mxCell>
        <mxCell id="_tN8K5B3pRtK9R9Q_DA4-97" value="&lt;span style=&quot;font-size: 24px;&quot;&gt;Customer&lt;/span&gt;" style="text;html=1;align=center;verticalAlign=middle;whiteSpace=wrap;rounded=0;" vertex="1" parent="1">
          <mxGeometry x="1550" y="592.5" width="120" height="40" as="geometry" />
        </mxCell>
        <mxCell id="_tN8K5B3pRtK9R9Q_DA4-98" value="&lt;span style=&quot;font-size: 24px;&quot;&gt;Person&lt;/span&gt;" style="text;html=1;align=center;verticalAlign=middle;whiteSpace=wrap;rounded=0;" vertex="1" parent="1">
          <mxGeometry x="500" y="310" width="120" height="40" as="geometry" />
        </mxCell>
        <mxCell id="_tN8K5B3pRtK9R9Q_DA4-99" value="" style="endArrow=classic;html=1;rounded=0;exitX=0;exitY=0.5;exitDx=0;exitDy=0;entryX=0.5;entryY=1;entryDx=0;entryDy=0;" edge="1" parent="1" source="_tN8K5B3pRtK9R9Q_DA4-93" target="_tN8K5B3pRtK9R9Q_DA4-3">
          <mxGeometry width="50" height="50" relative="1" as="geometry">
            <mxPoint x="1440" y="1150" as="sourcePoint" />
            <mxPoint x="1060" y="710" as="targetPoint" />
          </mxGeometry>
        </mxCell>
        <mxCell id="_tN8K5B3pRtK9R9Q_DA4-100" value="" style="endArrow=classic;html=1;rounded=0;exitX=0.75;exitY=0;exitDx=0;exitDy=0;entryX=0.75;entryY=1;entryDx=0;entryDy=0;" edge="1" parent="1" source="_tN8K5B3pRtK9R9Q_DA4-57" target="_tN8K5B3pRtK9R9Q_DA4-16">
          <mxGeometry width="50" height="50" relative="1" as="geometry">
            <mxPoint x="820" y="627.5" as="sourcePoint" />
            <mxPoint x="-100" y="359.5" as="targetPoint" />
          </mxGeometry>
        </mxCell>
      </root>
    </mxGraphModel>
  </diagram>
</mxfile>
